<svg width="651" height="452" viewBox="0 0 651 452" fill="none" xmlns="http://www.w3.org/2000/svg">
<rect y="71" width="25" height="71" fill="black"/>
<rect x="25" y="71" width="25" height="71" fill="black"/>
<rect x="25" y="213" width="25" height="95" fill="black"/>
<rect y="238" width="25" height="70" fill="black"/>
<rect x="50" y="95" width="25" height="237" fill="black"/>
<rect x="75" y="95" width="25" height="118" fill="black"/>
<rect x="75" y="238" width="25" height="94" fill="black"/>
<rect x="125" y="238" width="25" height="94" fill="black"/>
<rect x="125" y="356" width="25" height="96" fill="black"/>
<rect x="100" y="405" width="25" height="47" fill="black"/>
<rect x="150" y="356" width="25" height="49" fill="black"/>
<rect x="100" y="118" width="25" height="214" fill="black"/>
<rect x="125" y="48" width="25" height="165" fill="black"/>
<rect x="150" y="24" width="25" height="308" fill="black"/>
<rect x="175" y="24" width="25" height="308" fill="black"/>
<rect x="200" y="332" width="25" height="120" fill="black"/>
<rect x="225" y="332" width="25" height="92" fill="black"/>
<rect x="250" y="332" width="25" height="47" fill="black"/>
<rect x="275" y="332" width="25" height="24" fill="black"/>
<rect x="300" y="332" width="25" height="24" fill="black"/>
<rect x="325" y="332" width="25" height="24" fill="black"/>
<rect x="350" y="332" width="25" height="24" fill="black"/>
<rect x="350" y="405" width="25" height="47" fill="black"/>
<rect x="375" y="356" width="25" height="72" fill="black"/>
<rect x="400" y="356" width="25" height="49" fill="black"/>
<rect x="451" y="24" width="25" height="332" fill="black"/>
<rect x="476" y="24" width="25" height="428" fill="black"/>
<rect x="501" y="52" width="25" height="376" fill="black"/>
<rect x="526" y="71" width="25" height="334" fill="black"/>
<rect x="551" y="95" width="25" height="213" fill="black"/>
<rect x="576" y="71" width="25" height="47" fill="black"/>
<rect x="601" y="24" width="25" height="67" fill="black"/>
<rect x="551" width="50" height="24" fill="black"/>
<rect x="526" y="24" width="25" height="24" fill="black"/>
<rect x="626" y="48" width="25" height="19" fill="black"/>
<rect x="200" width="251" height="332" fill="black"/>
</svg>
