<svg xmlns="http://www.w3.org/2000/svg" width="601" height="418" fill="currentColor" viewBox="0 0 601 418">
  <path fill-rule="evenodd" d="M46.16 65.66H0v65.659h46.16v65.659H23.08v23.119H0v64.735h46.16v22.195h138.479V418h23.08v-25.894h23.08v-41.615h23.08v-21.27h92.319v45.314h-23.08V418h23.08v-22.195h23.08v-21.27h23.08v-45.314h-46.16v-22.194h70.163v22.194h23.08V418h23.08v-22.195h23.08v-21.27h23.08v-89.703h23.079V109.124h23.08v-24.97h23.08V61.96H601V44.39h-23.08V22.194h-23.08v43.464h-23.08v22.195h-23.079V65.659h-23.08V48.09h-23.08V22.195h-46.16V0H184.639v22.657h-45.698v22.195h-23.542v64.272H91.858v-21.27H46.16V65.659Zm46.16 131.318H69.24v23.119h23.08v-23.119Zm23.079 0h23.08v23.119h-23.08v-23.119ZM508.681 21.27h-23.08v23.12h23.08V22.194h45.236V0h-45.236v21.27ZM115.399 374.535v-45.314h46.16v45.314h-23.08V418h-46.16v-43.465h23.08Z" class="shmoergh-gyeszno" clip-rule="evenodd"/>
</svg>
