<svg xmlns="http://www.w3.org/2000/svg" width="2421" height="418" fill="currentColor" viewBox="0 0 2421 418">
  <g class="shmoergh-logo">
    <path fill-rule="evenodd" d="M0 65.66h46.16v22.194h45.698v21.27h23.541V44.852h23.542V22.657h45.698V0h231.722v22.195h46.16v25.894h23.08v17.57h23.08v22.195h23.079V65.659h23.08V22.195h23.08v22.194H601V61.96h-23.08v22.195h-23.08v24.969h-23.08v175.708h-23.079v89.703h-23.08v21.27h-23.08V418h-23.08v-88.779h-23.08v-22.194h-70.163v22.194h-92.319v21.27h-23.08v41.615h-23.08V418h-23.08V307.027H46.159v-22.195H0v-64.735h23.08v-23.119h23.08v-65.659H0v-65.66Zm69.24 131.318h23.08v23.119H69.24v-23.119Zm69.239 0h-23.08v23.119h23.08v-23.119Z" clip-rule="evenodd"/>
    <path d="M346.198 329.221h46.16v45.314h-23.08v21.27h-23.08V418h-23.08v-43.465h23.08v-45.314ZM485.601 21.27h23.08V0h45.236v22.195h-45.236v22.194h-23.08V21.27ZM115.399 329.221v45.314h-23.08V418h46.16v-43.465h23.08v-45.314h-46.16ZM821 98h-80v40h-40v80h40v40h40v40h40v80h-80v-40h-40v40h40v40h80v-40h40v-80h-40v-40h-40v-40h-40v-80h80v40h40v-40h-40V98Z"/>
    <path fill-rule="evenodd" d="M1381 178h-40v160h40v40h-40v40h40v-40h40v40h160v-40h40v-40h40V178h-40v-40h40V98h-40v40h-40V98h-160v40h-40v40Zm0 0h40v-40h160v40h-40v40h-40v40h-40v40h-40v40h-40V178Zm40 160h40v-40h40v-40h40v-40h40v-40h40v160h-40v40h-160v-40Zm600-200h-40V98h-120v320h40V258h40v40h40v120h40V298h-40v-40h-40v-40h40v-40h40v-40Zm-40 40h-40v40h-40v-80h80v40Z" clip-rule="evenodd"/>
    <path d="M1181 138h-40V98h-40v320h40V178h40v80h40v-80h40v240h40V98h-40v40h-40v40h-40v-40ZM901 98h40v120h80V98h40v320h-40V258h-80v160h-40V98Zm800 320h120v-40h-80V258h80v-40h-80v-80h80V98h-120v320Zm360-280h40v240h-40V138Zm40 240h80V258h-40v-40h80v200h-120v-40Zm0-240h120V98h-120v40Zm160-40h40v120h80V98h40v320h-40V258h-80v160h-40V98Z"/>
  </g>
</svg>
